<?xml version="1.0" encoding="utf-8"?>
<!-- Generator: Adobe Illustrator 26.3.1, SVG Export Plug-In . SVG Version: 6.00 Build 0)  -->
<svg version="1.1" id="Layer_1" xmlns="http://www.w3.org/2000/svg" xmlns:xlink="http://www.w3.org/1999/xlink" x="0px" y="0px"
	 viewBox="0 0 1920 1000" style="enable-background:new 0 0 1920 1000;" xml:space="preserve">
<style type="text/css">
	.st0{fill:#277777;}
	.st1{fill:#277474;}
	.st2{fill:#267171;}
</style>
<g id="Layer_2_00000076573410211094979940000004957658535599767441_">
	<rect y="-0.5" class="st0" width="1920" height="1000.6"/>
</g>
<path class="st1" d="M1546.8,998.7h103.6c10.9-96.6,28.5-192.4,52.9-286.6c-28.4-145.3-69.4-288.1-122.5-426.8
	c-44,95.3-80.8,193.5-110.1,293.8C1507.7,716.8,1533.2,857.1,1546.8,998.7z"/>
<path class="st1" d="M1422.6,423.4c31.2-86.7,68.1-171.5,110.2-253.7c-66.5-149.3-147.3-288.7-241.2-415.2
	c-15.3-20.6-30.9-40.6-46.8-60.3c-71.9,10.7-142.7,27-211.9,48.6C1197-73.9,1330.9,158.4,1422.6,423.4z"/>
<path class="st1" d="M994.6-37.3c-40.1-54.2-83.6-105.9-130.3-155c-60.7,28.1-119.3,60.5-175,97c259.3,253.5,443,643.9,495.1,1094
	h110.7c8.8-91.9,22.7-183.4,41.7-273.9C1272.2,440.6,1156,179.6,994.6-37.3z"/>
<path class="st1" d="M553.5,6.1c-49.2,41.6-95.2,86.6-137.7,134.5C622,340.4,770.7,645.4,820.7,998.7H1019
	C979,687.4,868.4,400,697.6,170.8C654.2,112.3,606,57.2,553.5,6.1z"/>
<path class="st1" d="M455.3,998.7h199C616.8,766.3,530,552.2,400.6,378.9c-27.3-36.7-56.9-71.8-88.6-105
	c-38.3,56.1-72.1,114.9-101,176C328.9,592,415.8,782.4,455.3,998.7z"/>
<path class="st1" d="M87.4,998.7H287C258.2,867,208.1,744.4,139,638.2C104.6,755.5,87.3,876.8,87.4,998.7z"/>
<path class="st2" d="M1336.7,724.9c-19,90.5-33,181.9-41.7,273.9h94.7c13.9-142,40.9-282.4,80.8-419.7
	c29.3-100.4,66.1-198.6,110.1-293.8c103.6-223.6,232-396.3,350.4-524c-31.9-11.4-64.3-21.7-97.3-30.9
	c-118.9,133.8-220,281.4-300.9,439.4c-42.2,82.3-79,167-110.2,253.7C1387,521.9,1358.3,622.6,1336.7,724.9z"/>
<path class="st2" d="M1745.2,998.7c58.6-492.2,275.7-823.6,462.2-1023.6c15.3-16.4,30.7-32.2,46.2-47.5
	c-25.9-18-52.4-35.2-79.6-51.5c-12.4,12.5-24.7,25.1-36.7,38C1978.5,84.5,1798.4,345.2,1703.1,712c-24.3,94.3-42,190-52.9,286.6
	L1745.2,998.7L1745.2,998.7z"/>
</svg>
